<svg width="14" height="14" viewBox="0 0 14 14" fill="none" xmlns="http://www.w3.org/2000/svg">
<path d="M0 0H13.2411V7.14795L12.5857 8.17201L13.2411 9.08342V13.2411H0V6.50279L0.409624 6.03172L0 5.58113V0Z" fill="#016FD0"/>
<path d="M2.57031 9.22679V7.14795H4.77142L5.00758 7.45581L5.25154 7.14795H13.241V9.08343C13.241 9.08343 13.0321 9.22471 12.7904 9.22679H8.3665L8.10024 8.89909V9.22679H7.22774V8.6674C7.22774 8.6674 7.10856 8.74548 6.85089 8.74548H6.55391V9.22679H5.23287L4.99705 8.91233L4.75762 9.22679H2.57031Z" fill="white"/>
<path d="M0 5.58126L0.496359 4.42407H1.35476L1.63645 5.07228V4.42407H2.70352L2.87121 4.89258L3.03378 4.42407H7.82383V4.65961C7.82383 4.65961 8.07564 4.42407 8.48947 4.42407L10.0437 4.4295L10.3205 5.06923V4.42407H11.2135L11.4592 4.79154V4.42407H12.3604V6.50292H11.4592L11.2237 6.13425V6.50292H9.91172L9.77979 6.17522H9.42708L9.29729 6.50292H8.40754C8.05145 6.50292 7.82383 6.27219 7.82383 6.27219V6.50292H6.48231L6.21605 6.17522V6.50292H1.22759L1.09575 6.17522H0.744164L0.613248 6.50292H0L0 5.58126Z" fill="white"/>
<path fill-rule="evenodd" clip-rule="evenodd" d="M0.00292969 6.23675L0.67241 4.68018H1.17996L1.8488 6.23675H1.40333L1.28045 5.92505H0.562323L0.438796 6.23675H0.00292969ZM1.13911 5.58724L0.920217 5.04256L0.700684 5.58724H1.13911Z" fill="#016FD0"/>
<path d="M1.89453 6.23675V4.68018L2.51392 4.68248L2.87418 5.68606L3.22581 4.68018H3.84025V6.23675H3.4511V5.0898L3.0386 6.23675H2.69732L2.28367 5.0898V6.23675H1.89453Z" fill="#016FD0"/>
<path d="M4.10645 6.23675V4.68018H5.37628V5.02836H4.49968V5.29461H5.3558V5.62231H4.49968V5.89881H5.37628V6.23675H4.10645Z" fill="#016FD0"/>
<path fill-rule="evenodd" clip-rule="evenodd" d="M5.60156 6.23675V4.68018H6.46753C6.75447 4.68018 7.01157 4.85761 7.01157 5.18517C7.01157 5.46518 6.7948 5.64554 6.58466 5.66328L7.09669 6.23675H6.62114L6.15456 5.68376H5.99071V6.23675H5.60156ZM6.43539 5.0284H5.99056V5.3561H6.44115C6.51914 5.3561 6.61972 5.29566 6.61972 5.19225C6.61972 5.11187 6.54209 5.0284 6.43539 5.0284Z" fill="#016FD0"/>
<path d="M7.56823 6.23675H7.1709V4.68018H7.56823V6.23675Z" fill="#016FD0"/>
<path d="M8.50952 6.23675H8.42376C8.00879 6.23675 7.75684 5.90982 7.75684 5.46486C7.75684 5.00891 8.00596 4.68018 8.53 4.68018H8.96011V5.04884H8.51428C8.30155 5.04884 8.1511 5.21485 8.1511 5.4687C8.1511 5.77015 8.32313 5.89676 8.57096 5.89676H8.67337L8.50952 6.23675Z" fill="#016FD0"/>
<path fill-rule="evenodd" clip-rule="evenodd" d="M8.6875 6.23675L9.35698 4.68018H9.86453L10.5334 6.23675H10.0879L9.96502 5.92505H9.24689L9.12337 6.23675H8.6875ZM9.82368 5.58724L9.60479 5.04256L9.38525 5.58724H9.82368Z" fill="#016FD0"/>
<path d="M10.5781 6.23675V4.68018H11.0729L11.7046 5.65816V4.68018H12.0937V6.23675H11.615L10.9673 5.23317V6.23675H10.5781Z" fill="#016FD0"/>
<path d="M2.83691 8.96063V7.40405H4.10675V7.75223H3.23015V8.01849H4.08627V8.34619H3.23015V8.62268H4.10675V8.96063H2.83691Z" fill="#016FD0"/>
<path d="M9.05859 8.96063V7.40405H10.3284V7.75223H9.45183V8.01849H10.3039V8.34619H9.45183V8.62268H10.3284V8.96063H9.05859Z" fill="#016FD0"/>
<path d="M4.15535 8.96063L4.77362 8.19194L4.14062 7.40405H4.63089L5.00788 7.89112L5.38614 7.40405H5.85721L5.23253 8.18234L5.85195 8.96063H5.36175L4.99572 8.48124L4.63857 8.96063H4.15535Z" fill="#016FD0"/>
<path fill-rule="evenodd" clip-rule="evenodd" d="M5.89844 8.96087V7.4043H6.75801C7.11071 7.4043 7.31676 7.63162 7.31676 7.92785C7.31676 8.28544 7.05405 8.46932 6.70745 8.46932H6.29782V8.96087H5.89844ZM6.72924 7.75643H6.29785V8.11485H6.72796C6.84161 8.11485 6.92125 8.03953 6.92125 7.93564C6.92125 7.82506 6.84121 7.75643 6.72924 7.75643Z" fill="#016FD0"/>
<path fill-rule="evenodd" clip-rule="evenodd" d="M7.48633 8.96063V7.40405H8.3523C8.63924 7.40405 8.89633 7.58149 8.89633 7.90904C8.89633 8.18906 8.67957 8.36942 8.46943 8.38715L8.98146 8.96063H8.50591L8.03932 8.40763H7.87547V8.96063H7.48633ZM8.32032 7.7522H7.87549V8.0799H8.32608C8.40407 8.0799 8.50465 8.01946 8.50465 7.91605C8.50465 7.83567 8.42702 7.7522 8.32032 7.7522Z" fill="#016FD0"/>
<path d="M10.5094 8.96063V8.62268H11.2882C11.4034 8.62268 11.4533 8.56041 11.4533 8.49212C11.4533 8.42668 11.4036 8.36053 11.2882 8.36053H10.9362C10.6303 8.36053 10.46 8.17415 10.46 7.89432C10.46 7.64474 10.616 7.40405 11.0706 7.40405H11.8284L11.6645 7.75428H11.0091C10.8838 7.75428 10.8453 7.82002 10.8453 7.8828C10.8453 7.94733 10.8929 8.01849 10.9886 8.01849H11.3573C11.6983 8.01849 11.8463 8.21192 11.8463 8.46524C11.8463 8.73757 11.6814 8.96063 11.3387 8.96063H10.5094Z" fill="#016FD0"/>
<path d="M11.9371 8.96063V8.62268H12.7159C12.8311 8.62268 12.881 8.56041 12.881 8.49212C12.881 8.42668 12.8313 8.36053 12.7159 8.36053H12.364C12.0581 8.36053 11.8877 8.17415 11.8877 7.89432C11.8877 7.64474 12.0437 7.40405 12.4983 7.40405H13.2561L13.0922 7.75428H12.4368C12.3116 7.75428 12.273 7.82002 12.273 7.8828C12.273 7.94733 12.3207 8.01849 12.4164 8.01849H12.785C13.126 8.01849 13.274 8.21192 13.274 8.46524C13.274 8.73757 13.1091 8.96063 12.7665 8.96063H11.9371Z" fill="#016FD0"/>
</svg>
