<svg width="82" height="156" viewBox="0 0 82 156" fill="none" xmlns="http://www.w3.org/2000/svg">
<path d="M11.7856 17.2485H5.94336L8.44718 41.7304L9.00359 61.2046H15.6805L12.8984 41.7304L11.7856 17.2485Z" fill="#216E7A"/>
<path d="M14.8711 64.543H10.1768C9.84708 64.543 9.5897 64.8281 9.62324 65.156L12.0644 89.0249L12.6053 107.959C12.6139 108.26 12.8604 108.499 13.1615 108.499H18.6561C18.9947 108.499 19.2548 108.199 19.2069 107.864L16.5156 89.0249L15.4269 65.0742C15.4134 64.777 15.1686 64.543 14.8711 64.543Z" fill="#216E7A"/>
<path d="M26.2407 81.2352L20.8859 81.2352C20.5586 81.2352 20.3021 81.5162 20.3318 81.8421L21.4856 94.5067L21.4856 105.933C21.4856 106.263 21.7723 106.521 22.1011 106.486L27.8067 105.876C28.124 105.842 28.3478 105.549 28.2969 105.234L26.539 94.3607C26.5336 94.3274 26.5312 94.2937 26.532 94.2601L26.797 81.8034C26.8036 81.4916 26.5526 81.2352 26.2407 81.2352Z" fill="#216E7A"/>
<path d="M18.4883 111.837H13.7939C13.4643 111.837 13.2069 112.123 13.2404 112.45L15.6768 136.273C15.68 136.304 15.6806 136.335 15.6786 136.366L15.1634 144.351C15.1427 144.672 15.3972 144.944 15.7186 144.944H21.1276C21.4773 144.944 21.7403 144.625 21.6739 144.281L20.1405 136.359C20.1354 136.333 20.1322 136.306 20.131 136.279L19.0441 112.369C19.0306 112.071 18.7858 111.837 18.4883 111.837Z" fill="#216E7A"/>
<path d="M2.71569 122.068C5.95312 120.138 10.5929 113.67 10.931 108.776C10.9521 108.47 10.7056 108.278 10.4486 108.446C8.4292 109.771 2.19084 116.66 2.02487 121.661C2.01247 122.034 2.39482 122.26 2.71569 122.068Z" fill="#216E7A"/>
<path d="M0.557621 103.591C1.74861 107.044 6.35531 107.616 9.5639 107.475C9.77147 107.466 9.97302 107.335 9.96241 107.127C9.87902 105.497 4.55608 103.243 1.05821 102.964C0.708043 102.936 0.443064 103.259 0.557621 103.591Z" fill="#216E7A"/>
<path d="M18.6322 74.2774C22.669 73.4101 29.5306 68.4235 31.1501 63.7354C31.2505 63.4449 31.0635 63.1841 30.766 63.2608C28.2844 63.9007 19.5012 68.8522 18.0866 73.6993C17.9857 74.0452 18.28 74.3531 18.6322 74.2774Z" fill="#216E7A"/>
<path d="M74.3547 89.1917C71.92 92.5263 64.5731 96.7654 59.6315 96.3374C59.3254 96.3108 59.1632 96.0339 59.3544 95.7933C60.9485 93.7868 69.0453 87.7781 74.0486 88.458C74.4056 88.5065 74.5672 88.9007 74.3547 89.1917Z" fill="#216E7A"/>
<path d="M81.3842 31.1164C77.0425 35.0196 65.3554 38.5897 59.0344 36.1527C58.7477 36.0422 58.6513 35.7252 58.8834 35.5237C61.3565 33.3772 75.0027 27.369 81.2716 30.3164C81.5912 30.4666 81.6468 30.8803 81.3842 31.1164Z" fill="#216E7A"/>
<path d="M63.3845 18.5115C63.6696 23.0781 60.4241 31.7841 56.0128 34.5929C55.7536 34.7579 55.4497 34.6416 55.4412 34.3344C55.3651 31.5884 58.0391 20.7109 62.6934 18.1241C63.0017 17.9527 63.3625 18.1594 63.3845 18.5115Z" fill="#216E7A"/>
<path d="M71.6263 48.9121C69.5426 44.5081 62.6635 38.2885 57.9651 38.2565C57.6578 38.2544 57.4604 38.5222 57.6002 38.7958C58.9003 41.3406 66.5064 49.939 71.2591 49.5836C71.5907 49.5589 71.7685 49.2126 71.6263 48.9121Z" fill="#216E7A"/>
<path d="M38.3619 16.4708L32.5293 16.1357L33.6251 40.7209L33.0638 60.1949L39.7297 60.5778L38.069 40.9761L38.3619 16.4708Z" fill="#216E7A"/>
<path d="M55.4354 0.94405L49.6699 0L48.1848 24.5647L45.5871 43.8729L52.1762 44.9518L52.5776 25.284L55.4354 0.94405Z" fill="#216E7A"/>
<path d="M62.0762 52.5967L54.543 51.1893L52.5129 75.7326L49.0475 94.91L57.6569 96.5185L58.2526 76.8049L62.0762 52.5967Z" fill="#216E7A"/>
<path d="M38.7276 63.8643L34.041 63.5951C33.7118 63.5762 33.4385 63.846 33.4532 64.1754L34.5216 88.1449L33.9759 107.078C33.9672 107.379 34.1995 107.633 34.5002 107.65L39.9857 107.965C40.3237 107.984 40.6006 107.7 40.572 107.363L38.9655 88.4001L39.2521 64.4264C39.2556 64.129 39.0246 63.8813 38.7276 63.8643Z" fill="#216E7A"/>
<path d="M50.8365 48.1155L46.2038 47.3569C45.8785 47.3036 45.5784 47.5433 45.5585 47.8724L44.1106 71.822L41.585 90.5943C41.5448 90.8927 41.7493 91.1689 42.0465 91.2176L47.4689 92.1054C47.803 92.1601 48.1082 91.9062 48.1151 91.5677L48.5033 72.5413L51.2992 48.7294C51.3339 48.434 51.13 48.1635 50.8365 48.1155Z" fill="#216E7A"/>
<path d="M56.0648 99.6196L49.672 98.4253C49.3411 98.3635 49.0223 98.6056 48.9947 98.9397L47.0169 122.852L43.5973 143.064C43.5444 143.376 43.7655 143.662 44.0827 143.69L51.2468 144.333C51.5703 144.362 51.8585 144.113 51.8728 143.791L52.7565 123.924L56.4985 100.233C56.5443 99.9425 56.3542 99.6737 56.0648 99.6196Z" fill="#216E7A"/>
<path d="M39.6338 111.289L34.9386 111.019C34.6097 111 34.3366 111.269 34.3508 111.599L35.1522 130.159C35.1534 130.185 35.1526 130.212 35.1498 130.239L33.8196 143.275C33.7884 143.582 34.0122 143.855 34.3189 143.885L41.447 144.583C41.8032 144.618 42.0993 144.312 42.053 143.957L40.2086 129.823L40.1583 111.843C40.1575 111.548 39.9276 111.306 39.6338 111.289Z" fill="#216E7A"/>
<path d="M24.2107 47.9968C22.7427 52.3556 27.2992 57.1527 30.817 59.9272C30.9762 60.0528 31.2057 60.0894 31.3396 59.9371C32.6501 58.4464 28.5618 51.2154 25.0162 47.8129C24.7532 47.5605 24.327 47.6513 24.2107 47.9968Z" fill="#216E7A"/>
<path d="M67.7606 110.748C63.5403 110.453 60.7792 104.749 59.4474 100.661C59.3852 100.47 59.4287 100.241 59.6191 100.177C61.3415 99.5995 66.3397 105.726 68.2227 110.063C68.3698 110.402 68.129 110.773 67.7606 110.748Z" fill="#216E7A"/>
<path d="M27.5532 108.754L22.1984 108.754C21.8711 108.754 21.6146 109.035 21.6443 109.361L22.7981 122.026L22.7981 144.046C22.7981 144.377 23.0848 144.635 23.4136 144.6L29.1621 143.985C29.4628 143.953 29.6828 143.687 29.6575 143.385L27.8434 121.83L28.1095 109.322C28.1161 109.011 27.8651 108.754 27.5532 108.754Z" fill="#216E7A"/>
</svg>
