<svg width="19" height="15" viewBox="0 0 19 15" fill="none" xmlns="http://www.w3.org/2000/svg">
<rect x="6.63086" y="1.19971" width="4.91307" height="8.83058" fill="#6C6BBD"/>
<path d="M6.93903 5.61493C6.93903 3.82293 7.7753 2.23004 9.08445 1.19964C8.12872 0.448 6.9241 0 5.61494 0C2.51378 0 0 2.51378 0 5.61493C0 8.71609 2.51378 11.2299 5.61494 11.2299C6.9241 11.2299 8.12872 10.7819 9.08445 10.0302C7.78027 8.99982 6.93903 7.40693 6.93903 5.61493Z" fill="#D32011"/>
<path d="M18.1684 5.61493C18.1684 8.71609 15.6546 11.2299 12.5535 11.2299C11.2443 11.2299 10.0397 10.7819 9.08398 10.0302C10.3882 8.99982 11.2294 7.40693 11.2294 5.61493C11.2294 3.82293 10.3931 2.23004 9.08398 1.19964C10.0397 0.448 11.2443 0 12.5535 0C15.6546 0 18.1684 2.51378 18.1684 5.61493Z" fill="#0099DF"/>
<path fill-rule="evenodd" clip-rule="evenodd" d="M11.4739 12.8575H12.0065V12.5538H11.4789V12.1008H11.1503V12.5538H10.8467V12.8525H11.1503V13.5344C11.1503 13.8829 11.2847 14.087 11.668 14.087C11.8074 14.087 11.9667 14.0422 12.0712 13.9725L11.9766 13.6937C11.8771 13.7485 11.7725 13.7783 11.6879 13.7783C11.5286 13.7783 11.4739 13.6788 11.4739 13.5295V12.8575ZM13.4302 12.5638C13.3605 12.5389 13.2659 12.524 13.2012 12.524C13.017 12.524 12.8926 12.6086 12.8079 12.7381V12.5589H12.4844V14.0472H12.8079V13.2109C12.8079 12.967 12.9125 12.8277 13.1265 12.8277C13.1912 12.8277 13.2609 12.8376 13.3306 12.8675L13.4302 12.5638ZM7.85482 13.176C7.88966 12.9619 8.01909 12.8126 8.25304 12.8126C8.46211 12.8126 8.59651 12.942 8.63136 13.176H7.85482ZM8.25797 12.524C8.6761 12.524 8.95984 12.8426 8.96481 13.3055C8.96481 13.3286 8.96349 13.3503 8.96221 13.3714C8.96101 13.3913 8.95984 13.4106 8.95984 13.43H7.85477C7.90454 13.6988 8.0937 13.7933 8.30277 13.7933C8.4521 13.7933 8.61139 13.7386 8.73584 13.639L8.89512 13.878C8.71095 14.0323 8.50686 14.087 8.28286 14.087C7.83486 14.087 7.51628 13.7784 7.51628 13.3055C7.51628 12.8426 7.81992 12.524 8.25797 12.524ZM10.3887 12.9421C10.2991 12.8874 10.1149 12.8127 9.92577 12.8127C9.74657 12.8127 9.64204 12.8774 9.64204 12.9869C9.64204 13.0865 9.75653 13.1164 9.89591 13.1313L10.0502 13.1512C10.3738 13.196 10.5729 13.3354 10.5729 13.5992C10.5729 13.8829 10.324 14.087 9.89093 14.087C9.64702 14.087 9.42302 14.0223 9.24382 13.8929L9.39813 13.639C9.50764 13.7237 9.67191 13.7933 9.89591 13.7933C10.1149 13.7933 10.2344 13.7286 10.2344 13.6141C10.2344 13.5295 10.1498 13.4847 9.97057 13.4598L9.81626 13.4399C9.48275 13.3951 9.30355 13.2408 9.30355 13.0019C9.30355 12.7032 9.54746 12.524 9.92577 12.524C10.1647 12.524 10.3788 12.5788 10.5331 12.6783L10.3887 12.9421ZM14.2066 12.8674C14.2613 12.8426 14.3261 12.8326 14.3908 12.8326C14.4555 12.8326 14.5152 12.8426 14.5749 12.8674C14.6347 12.8923 14.6845 12.9272 14.7243 12.967C14.7691 13.0068 14.7989 13.0566 14.8238 13.1163C14.8487 13.1761 14.8587 13.2408 14.8587 13.3105C14.8587 13.3802 14.8487 13.4449 14.8238 13.5046C14.7989 13.5594 14.7691 13.6141 14.7243 13.6539C14.6845 13.6987 14.6347 13.7286 14.5749 13.7535C14.5202 13.7784 14.4555 13.7883 14.3908 13.7883C14.3261 13.7883 14.2663 13.7784 14.2066 13.7535C14.1469 13.7286 14.0971 13.6938 14.0573 13.6539C14.0125 13.6141 13.9826 13.5643 13.9577 13.5046C13.9328 13.4449 13.9229 13.3802 13.9229 13.3105C13.9229 13.2408 13.9328 13.1761 13.9577 13.1163C13.9826 13.0616 14.0174 13.0068 14.0573 12.967C14.1021 12.9222 14.1518 12.8923 14.2066 12.8674ZM14.3907 12.524C14.5052 12.524 14.6147 12.5439 14.7143 12.5837C14.8138 12.6236 14.8984 12.6783 14.9681 12.748C15.0378 12.8177 15.0975 12.9023 15.1374 12.9969C15.1772 13.0915 15.1971 13.196 15.1971 13.3105C15.1971 13.425 15.1772 13.5295 15.1374 13.6241C15.0975 13.7187 15.0428 13.8033 14.9681 13.873C14.8984 13.9427 14.8088 13.9974 14.7143 14.0373C14.6147 14.0771 14.5102 14.097 14.3907 14.097C14.2762 14.097 14.1667 14.0771 14.0672 14.0373C13.9676 13.9974 13.883 13.9427 13.8133 13.873C13.7436 13.8033 13.6839 13.7187 13.644 13.6241C13.6042 13.5295 13.5843 13.425 13.5843 13.3105C13.5843 13.196 13.6042 13.0915 13.644 12.9969C13.6839 12.9023 13.7386 12.8177 13.8133 12.748C13.883 12.6783 13.9676 12.6236 14.0672 12.5837C14.1667 12.5439 14.2712 12.524 14.3907 12.524ZM6.41131 12.8276C6.12758 12.8276 5.95833 13.0416 5.95833 13.3054C5.95833 13.5692 6.12758 13.7833 6.41131 13.7833C6.68011 13.7833 6.8593 13.5792 6.8593 13.3054C6.8593 13.0316 6.68011 12.8276 6.41131 12.8276ZM7.16291 13.3055V12.5588H6.83935V12.738C6.73482 12.6036 6.58051 12.519 6.36646 12.519C5.94833 12.519 5.61979 12.8475 5.61979 13.3005C5.61979 13.7535 5.94833 14.082 6.36646 14.082C6.58051 14.082 6.73482 13.9974 6.83935 13.863V14.0422H7.16291V13.3055ZM5.33612 13.1163V14.0472H5.00759V13.2159C5.00759 12.962 4.90305 12.8226 4.67905 12.8226C4.46501 12.8226 4.31568 12.962 4.31568 13.2209V14.0472H3.98714V13.2159C3.98714 12.962 3.87763 12.8226 3.66359 12.8226C3.44457 12.8226 3.30021 12.962 3.30021 13.2209V14.0472H2.97168V12.5588H3.29523V12.743C3.41968 12.5688 3.57399 12.524 3.73328 12.524C3.96226 12.524 4.12154 12.6235 4.22608 12.7878C4.36048 12.5787 4.55959 12.519 4.74874 12.524C5.11212 12.5289 5.33612 12.7629 5.33612 13.1163Z" fill="#110F0D"/>
</svg>
