<svg width="22" height="15" viewBox="0 0 22 15" fill="none" xmlns="http://www.w3.org/2000/svg">
<g opacity="0.01">
<rect width="21.9259" height="14.8148" fill="white"/>
</g>
<rect x="8.02539" y="2.51196" width="5.75099" height="9.39307" fill="#FF5F00"/>
<path d="M8.61818 7.20941C8.61674 5.37676 9.45803 3.64522 10.8997 2.51371C8.45056 0.588978 4.93355 0.869332 2.82029 3.15775C0.707038 5.44616 0.707038 8.97433 2.82029 11.2627C4.93355 13.5512 8.45056 13.8315 10.8997 11.9068C9.45757 10.7749 8.61623 9.04265 8.61818 7.20941Z" fill="#EB001B"/>
<path fill-rule="evenodd" clip-rule="evenodd" d="M19.9944 10.7188V10.9113H19.9579V10.7188H19.8799V10.679H20.0773V10.7188H19.9944ZM20.3777 10.679V10.9113H20.3362V10.7355L20.2715 10.8864H20.2267L20.162 10.7355V10.9113H20.1188V10.679H20.1785L20.2482 10.845L20.3179 10.679H20.3777Z" fill="#F79E1B"/>
<path d="M20.5646 7.20952C20.5645 9.49654 19.2587 11.5828 17.2016 12.5822C15.1445 13.5816 12.6973 13.3187 10.8994 11.9052C12.3404 10.7728 13.1818 9.04144 13.1818 7.20869C13.1818 5.37594 12.3404 3.64463 10.8994 2.51216C12.6973 1.09865 15.1445 0.835787 17.2016 1.8352C19.2587 2.83461 20.5645 4.92084 20.5646 7.20786V7.20952Z" fill="#F79E1B"/>
</svg>
