<svg width="1920" height="467" viewBox="0 0 1920 467" fill="none" xmlns="http://www.w3.org/2000/svg">
<path d="M107.177 104.333L-7.75101 207.715C-16.1841 215.3 -21 226.11 -21 237.453V342.642C-21 364.733 -3.09142 382.642 19 382.642H80.7997C85.9989 382.642 91.1481 381.628 95.9594 379.658L285.778 301.918C290.589 299.948 295.739 298.934 300.938 298.934H601.086C609.856 298.934 618.383 301.817 625.354 307.138L713.532 374.439C720.503 379.76 729.03 382.642 737.8 382.642H950.167C957.308 382.642 964.319 384.554 970.472 388.179L1093.75 460.813C1099.91 464.438 1106.92 466.349 1114.06 466.349H1294.61C1299.86 466.349 1305.05 465.317 1309.9 463.312L1419.71 417.887L1551.9 383.902C1555.15 383.065 1558.5 382.642 1561.86 382.642H1756.25C1764.34 382.642 1772.24 380.189 1778.9 375.606L1915.46 281.74C1922.13 277.157 1930.03 274.703 1938.12 274.703H1953C1975.09 274.703 1993 256.795 1993 234.703V147.288C1993 125.197 1975.09 107.288 1953 107.288H1938.12C1930.03 107.288 1922.13 104.835 1915.46 100.252L1779.85 7.03632C1772.6 2.0513 1763.91 -0.402891 1755.12 0.0539867L1571.73 9.5877C1562.1 10.0881 1552.98 14.0474 1546.04 20.7373L1431.33 131.33C1423.87 138.517 1413.92 142.533 1403.57 142.533H1314.46C1306.69 142.533 1299.09 140.271 1292.59 136.022L1197.87 74.1487C1191.36 69.8998 1183.76 67.6372 1175.99 67.6372H974.569C965.815 67.6372 957.302 70.509 950.337 75.8121L809.794 182.821C802.829 188.124 794.316 190.996 785.562 190.996H604.699C596.544 190.996 588.583 188.503 581.885 183.851L462.878 101.215C456.179 96.564 448.219 94.0712 440.063 94.0712H133.928C124.05 94.0712 114.521 97.7263 107.177 104.333Z" fill="#2A808D" fill-opacity="0.3"/>
</svg>
