<svg width="1920" height="463" viewBox="0 0 1920 463" fill="none" xmlns="http://www.w3.org/2000/svg">
<path d="M106.95 112.551L-8.83377 224.731C-16.6103 232.266 -21 242.631 -21 253.459V372.095C-21 394.186 -3.09142 412.095 19 412.095H88.6733H425.5H724.28H954.221C958.757 412.095 963.26 412.866 967.537 414.376L1096.69 459.973C1100.97 461.483 1105.47 462.255 1110 462.255H1296.33C1300.46 462.255 1304.56 461.616 1308.49 460.36L1550.86 382.989C1554.8 381.734 1558.9 381.095 1563.03 381.095H1817H1917.77C1931.59 381.095 1944.44 373.954 1951.74 362.212L1986.97 305.533C1990.91 299.194 1993 291.88 1993 284.416V155.514C1993 133.423 1975.09 115.514 1953 115.514H1938.9C1930.33 115.514 1921.98 112.762 1915.09 107.663L1780.28 7.85182C1772.78 2.29618 1763.57 -0.459373 1754.24 0.0626057L1572.48 10.24C1562.4 10.8044 1552.91 15.1594 1545.9 22.4312L1431.51 141.223C1423.97 149.053 1413.57 153.477 1402.7 153.477H1315.22C1306.98 153.477 1298.94 150.932 1292.2 146.191L1198.25 80.0924C1191.52 75.3512 1183.48 72.8068 1175.24 72.8068H975.378C966.129 72.8068 957.166 76.0122 950.014 81.8773L810.117 196.604C802.966 202.469 794.002 205.675 784.753 205.675H605.477C596.84 205.675 588.436 202.879 581.52 197.707L463.243 109.246C456.327 104.074 447.922 101.278 439.286 101.278H134.784C124.394 101.278 114.412 105.321 106.95 112.551Z" fill="#2A8086"/>
</svg>
