<svg width="33" height="66" viewBox="0 0 33 66" fill="none" xmlns="http://www.w3.org/2000/svg">
<path d="M13.9111 59.1991C14.1596 58.1944 14.0656 56.3396 14.0656 56.3396L18.5481 54.3302C18.5481 54.3302 18.1388 55.552 18.2389 56.3396C18.3245 57.0124 18.7255 57.2972 18.8572 57.9625C19.0096 58.7323 18.6789 59.2077 18.8572 59.9719C18.9833 60.5122 19.3982 61.2857 19.3982 61.2857C19.3982 61.2857 20.0175 61.1423 20.3256 60.8993C20.7606 60.5562 20.8183 60.1783 21.0212 59.6628C21.5625 58.2865 20.8666 55.8759 21.0212 55.8759C21.1757 55.8759 25.0399 58.5035 25.0399 58.5035C25.0399 58.5035 24.521 59.6496 24.4216 60.4356C24.2693 61.6405 24.4497 62.459 23.6488 63.5269C23.3165 63.8031 22.6441 63.9906 22.6441 63.9906C22.6441 63.9906 20.4802 66 20.5575 65.459C20.5575 64.7635 20.712 63.6815 20.712 63.6815C20.712 63.6815 16.075 65.8454 16.075 65.459C15.9204 64.8407 16.616 63.9906 16.616 63.9906C16.616 63.9906 14.993 64.9953 15.1476 64.5316C15.2556 64.2077 15.4641 63.8504 15.6561 63.5609C15.5713 63.6295 15.4777 63.6772 15.3795 63.6815C14.8359 63.7053 14.9158 62.3677 14.9158 62.3677C14.9158 62.3677 12.3654 63.9906 11.2062 63.9906C10.9413 63.4785 11.0516 62.5222 11.0516 62.5222C11.0516 62.5222 9.1968 63.1405 8.34668 63.0632C8.50125 62.0585 9.2294 61.7816 9.96963 61.1311C11.2573 59.9996 13.1382 59.5855 13.9111 59.1991Z" fill="#0A5D69"/>
<path d="M1.00468 0.386476C0.761655 0.486835 0.468771 0.674032 0.262104 0.816252C0.15513 0.889867 0.187455 1.05076 0.313518 1.08192C0.576551 1.14694 0.953546 1.24078 1.23653 1.31388C2.63339 1.6747 3.44268 1.80681 4.79157 2.31856C6.47004 2.95534 7.44066 3.34261 8.88759 4.40521C9.56041 4.89932 9.96626 5.16339 10.5105 5.79631L10.5169 5.80371C11.3145 6.73114 11.8548 7.35951 11.9789 8.57851C12.0125 8.9088 11.9789 9.42863 11.9789 9.42863C11.9789 9.42863 12.7939 9.93171 13.37 10.1242C14.9157 10.6651 20.5574 8.34663 20.5574 5.8736C19.9391 3.94148 18.7256 2.23641 16.5386 1.31388C15.9313 1.05768 15.5668 0.952887 14.9157 0.850176C14.0809 0.718498 13.5955 0.802546 12.7518 0.850176C11.4733 0.922346 10.7859 1.34795 9.50586 1.31388C8.52869 1.28787 7.99649 1.09118 7.03279 0.927459C5.45719 0.659793 4.61206 0.131625 3.01405 0.154626C2.22422 0.165994 1.73479 0.0849755 1.00468 0.386476Z" fill="#0A5D69"/>
<path d="M16.3072 9.35129C15.2912 9.79303 13.634 10.0608 13.2826 10.1142C13.2562 10.1182 13.2479 10.1514 13.2682 10.1686L14.7615 11.4379L17.621 13.6019C17.621 13.6019 19.5886 15.3202 20.3259 16.7705C20.6765 17.4601 20.7616 17.8966 21.0214 18.6253C21.669 20.4416 22.4898 23.3396 22.4898 23.3396C22.4898 23.3396 23.0533 25.355 23.8036 26.4309C24.2438 27.0621 24.6139 27.3175 25.1175 27.8993C25.9596 28.8724 26.626 29.3 27.2041 30.4496C27.9354 31.904 27.6511 32.7785 27.9769 34.5457C28.4057 36.8708 29.2908 40.8829 29.2908 40.8829V42.0422C29.2908 43.521 29.447 44.3584 29.2908 45.829C29.1375 47.2712 28.5179 49.4614 28.5179 49.4614L26.8034 54.9623C26.7867 55.0158 26.8597 55.0474 26.8861 54.998C27.2144 54.3842 27.8297 53.2174 28.2088 52.3981C28.7498 50.9297 28.9069 49.5094 29.4453 47.6838C29.6765 46.9001 30.0383 45.7695 30.169 45.3633C30.1832 45.319 30.2463 45.3214 30.2577 45.3665L31.4547 50.0796C31.4547 50.0796 32.073 51.7799 32.6912 51.8571C33.068 51.5418 32.9231 50.6206 32.9231 50.6206C32.9231 50.6206 32.1889 48.3319 31.8411 46.8337C31.4944 45.3401 31.4449 44.4734 31.1456 42.9696C31.0011 42.2439 30.8821 41.8444 30.7591 41.1148C30.6819 39.6464 30.6097 37.2055 30.5273 34.7002C30.4618 32.7084 30.6579 31.5719 30.3727 29.5995C30.2228 28.5626 30.0873 27.9879 29.8317 26.9719C29.3335 24.9911 28.8998 23.9183 28.1315 22.0258C27.456 20.3617 26.8945 19.5085 26.1994 17.8525C25.6485 16.5398 25.5072 15.7328 24.8856 14.452C24.176 12.9898 23.5076 12.3196 22.7217 10.897C22.1799 9.91628 21.8442 9.37851 21.4079 8.3466C21.0554 7.5131 20.6601 6.2149 20.5746 5.93002C20.5674 5.90598 20.5367 5.90018 20.521 5.91979C20.339 6.14762 19.5163 7.16225 18.8575 7.72834C17.9621 8.49771 17.3898 8.88058 16.3072 9.35129Z" fill="#0A5D69"/>
<path d="M5.87394 34.0048C6.24482 32.5529 7.11047 30.3724 7.11047 30.3724L9.81539 46.6019C9.81539 46.6019 9.35169 48.7659 7.96059 48.3795C7.11047 47.993 6.18307 47.2975 5.71937 46.3701C5.34494 45.6818 5.33074 45.2066 5.17839 44.438C4.93715 43.221 4.95175 42.5101 4.94654 41.2694C4.94023 39.768 5.05347 38.9198 5.25075 37.4421L5.25567 37.4052C5.43427 36.0674 5.53987 35.3125 5.87394 34.0048Z" fill="#0A5D69" stroke="#0A5D69" stroke-width="0.154567"/>
<path d="M12.1328 9.92859C12.3509 9.92859 12.4721 9.98072 12.5449 10.0262C12.6363 10.0834 12.6741 10.1359 12.7842 10.246C13.4186 10.8803 13.758 11.1393 14.3555 11.66C14.9679 12.1938 15.5123 12.5057 16 12.8007C16.4848 13.0939 16.9283 13.3787 17.4189 13.8759C19.165 15.6451 20.1441 16.7397 20.7715 18.9911C21.541 21.7528 22.6047 25.1692 24.3193 27.6434L24.3447 27.6805L24.377 27.7118C24.5969 27.9317 24.8432 28.161 25.0889 28.3905C25.3372 28.6225 25.588 28.858 25.8291 29.1014C26.3155 29.5925 26.7345 30.088 26.9883 30.5956C27.7931 32.2052 28.79 36.3733 28.79 40.6512C28.79 41.5648 28.8537 42.2806 28.9033 42.9677C28.9525 43.6487 28.9879 44.3136 28.9453 45.163C28.565 47.8919 28.0355 49.9441 27.1953 52.6952C26.3961 54.9622 25.4805 56.7382 24.6045 58.3534C24.0538 58.2761 23.4747 58.1243 22.9766 57.9569C22.6805 57.8574 22.4196 57.755 22.2178 57.6659C22.117 57.6214 22.0337 57.5814 21.9697 57.5477C21.9486 57.5366 21.9306 57.5254 21.915 57.5165C21.9111 57.5023 21.9045 57.4843 21.8994 57.4608C21.8872 57.4041 21.8765 57.337 21.8633 57.2518C21.8507 57.171 21.8354 57.0734 21.8174 56.9755C21.7514 56.6176 21.6025 55.9982 20.9912 55.7274L20.9902 55.7284C20.7796 55.6277 20.5307 55.5727 20.3018 55.5321C20.0883 55.4943 19.7447 55.4463 19.4951 55.4042C18.9934 55.3194 18.4472 55.1965 17.9033 54.9423L17.6709 54.8251L17.5381 54.7655C17.265 54.6682 16.9539 54.6989 16.7041 54.8661L16.585 54.9608C16.3094 55.2199 15.8892 55.5881 15.4424 55.8885C15.0663 56.1414 14.7309 56.3021 14.4746 56.3573C14.4104 56.2675 14.3743 56.154 14.3418 55.9823C14.2966 55.7432 14.2557 55.2952 14.0488 54.8798C13.7685 54.3169 13.486 53.9146 13.1973 53.536C12.9062 53.1544 12.6304 52.8224 12.3174 52.3524C11.5077 51.1369 11.0045 50.636 10.4395 49.4393C10.0742 48.1852 9.92035 47.0078 9.80469 45.7421C9.68871 44.4728 9.60866 43.0921 9.38184 41.5077C9.06087 39.2658 8.7322 37.1945 8.42578 35.2899C8.12032 33.3913 7.83713 31.6616 7.60645 30.0868C7.4421 27.9917 7.35763 26.8223 7.37793 24.7352C7.40267 22.1911 7.30415 20.6042 7.82812 18.4335L7.8291 18.4276C8.41568 15.8588 9.09971 14.4492 10.3965 12.16C10.7851 11.6055 11.1322 11.0498 11.4941 10.5751C11.6723 10.3414 11.8291 10.1628 11.9639 10.0468C12.1117 9.91958 12.1618 9.92859 12.1328 9.92859Z" fill="white" stroke="#0A5D69"/>
</svg>
