<svg width="540" height="248" viewBox="0 0 540 248" fill="none" xmlns="http://www.w3.org/2000/svg">
<g filter="url(#filter0_d_215_309)">
<path d="M30 38C30 32.4772 34.4772 28 40 28H500C505.523 28 510 32.4772 510 38V190C510 195.523 505.523 200 500 200H135.785C132.759 200 129.896 201.37 127.998 203.727L119.465 214.32C117.913 216.246 115.003 216.316 113.36 214.468L103.483 203.356C101.586 201.221 98.8657 200 96.0093 200H40C34.4772 200 30 195.523 30 190V38Z" fill="white"/>
<path d="M40 28.5H500C505.247 28.5 509.5 32.7533 509.5 38V190C509.5 195.247 505.247 199.5 500 199.5H135.785C132.608 199.5 129.602 200.939 127.608 203.413L119.075 214.006C117.718 215.691 115.171 215.753 113.733 214.136L103.857 203.024C101.865 200.783 99.0088 199.5 96.0098 199.5H40C34.7533 199.5 30.5 195.247 30.5 190V38C30.5 32.7533 34.7533 28.5 40 28.5Z" stroke="black"/>
<path d="M40 28.5H500C505.247 28.5 509.5 32.7533 509.5 38V190C509.5 195.247 505.247 199.5 500 199.5H135.785C132.608 199.5 129.602 200.939 127.608 203.413L119.075 214.006C117.718 215.691 115.171 215.753 113.733 214.136L103.857 203.024C101.865 200.783 99.0088 199.5 96.0098 199.5H40C34.7533 199.5 30.5 195.247 30.5 190V38C30.5 32.7533 34.7533 28.5 40 28.5Z" stroke="black" stroke-opacity="0.2"/>
</g>
<defs>
<filter id="filter0_d_215_309" x="0" y="0" width="540" height="247.81" filterUnits="userSpaceOnUse" color-interpolation-filters="sRGB">
<feFlood flood-opacity="0" result="BackgroundImageFix"/>
<feColorMatrix in="SourceAlpha" type="matrix" values="0 0 0 0 0 0 0 0 0 0 0 0 0 0 0 0 0 0 127 0" result="hardAlpha"/>
<feOffset dy="2"/>
<feGaussianBlur stdDeviation="15"/>
<feColorMatrix type="matrix" values="0 0 0 0 0 0 0 0 0 0 0 0 0 0 0 0 0 0 0.06 0"/>
<feBlend mode="normal" in2="BackgroundImageFix" result="effect1_dropShadow_215_309"/>
<feBlend mode="normal" in="SourceGraphic" in2="effect1_dropShadow_215_309" result="shape"/>
</filter>
</defs>
</svg>
