<svg width="1920" height="530" viewBox="0 0 1920 530" fill="none" xmlns="http://www.w3.org/2000/svg">
<path d="M1849.56 238.012L1948.33 282.179C1962.73 288.618 1972 302.92 1972 318.694V428.34C1972 450.431 1954.09 468.34 1932 468.34H1750.4C1743.9 468.34 1737.49 469.924 1731.74 472.957L1633.26 524.883C1627.51 527.915 1621.1 529.5 1614.6 529.5H1319.64C1310.8 529.5 1302.2 526.571 1295.2 521.171L1237.52 476.669C1230.52 471.269 1221.93 468.34 1213.08 468.34H998.046C992.687 468.34 987.383 469.416 982.449 471.506L855.326 525.334C850.392 527.423 845.088 528.5 839.729 528.5H663.36C653.739 528.5 644.44 525.032 637.169 518.733L590.274 478.107C583.003 471.807 573.704 468.34 564.083 468.34H195.527C186.957 468.34 178.614 465.587 171.726 460.488L35.905 359.932C29.0172 354.833 20.6738 352.08 12.1039 352.08H-2C-24.0914 352.08 -42 334.172 -42 312.08V211.76C-42 189.668 -24.0914 171.76 -2 171.76H6.1001C18.2369 171.76 29.7173 166.249 37.309 156.78L150.991 14.9798C158.582 5.51041 170.063 0 182.199 0H598.95C619.437 0 636.612 15.479 638.735 35.8557L644.708 93.1963C646.831 113.573 664.006 129.052 684.493 129.052H1023.38C1030.97 129.052 1038.4 126.892 1044.81 122.824L1216.91 13.5917C1223.32 9.52355 1230.75 7.36328 1238.34 7.36328H1403.5H1715.74C1731.93 7.36328 1746.53 17.1315 1752.71 32.1039L1828.92 216.756C1832.82 226.223 1840.21 233.831 1849.56 238.012Z" fill="#2A8086"/>
</svg>
