<svg width="1920" height="534" viewBox="0 0 1920 534" fill="none" xmlns="http://www.w3.org/2000/svg">
<path d="M1872.84 240.027L1971.48 284.618C1985.8 291.092 1995 305.351 1995 321.067V432.32C1995 454.411 1977.09 472.32 1955 472.32H1773.95C1767.39 472.32 1760.93 473.933 1755.14 477.018L1657.01 529.302C1651.22 532.387 1644.76 534 1638.2 534H1344.07C1335.16 534 1326.51 531.025 1319.48 525.547L1262.04 480.773C1255.02 475.295 1246.36 472.32 1237.45 472.32H1023.07C1017.67 472.32 1012.31 473.417 1007.34 475.545L880.619 529.766C875.646 531.894 870.293 532.991 864.883 532.991H689.107C679.414 532.991 670.052 529.472 662.759 523.088L616.079 482.223C608.786 475.839 599.424 472.32 589.732 472.32H222.193C213.554 472.32 205.148 469.523 198.231 464.349L62.8208 363.044C55.9039 357.869 47.4976 355.072 38.8591 355.072H25C2.90857 355.072 -15 337.164 -15 315.072V213.219C-15 191.128 2.90857 173.219 25 173.219H32.8409C45.0492 173.219 56.5891 167.644 64.1768 158.08L177.582 15.1391C185.17 5.5752 196.709 0 208.918 0H624.567C645.07 0 662.254 15.5031 664.356 35.8983L670.371 94.2504C672.474 114.646 689.657 130.149 710.16 130.149H1003.44C1010.91 130.149 1018.24 128.053 1024.59 124.1L1201.35 13.9846C1207.7 10.0313 1215.02 7.93576 1222.5 7.93576H1427.63H1739.17C1755.41 7.93576 1770.03 17.7539 1776.19 32.7829L1852.3 218.731C1856.17 228.194 1863.52 235.815 1872.84 240.027Z" fill="#2A808D" fill-opacity="0.3"/>
</svg>
