<svg width="320" height="666" viewBox="0 0 320 666" fill="none" xmlns="http://www.w3.org/2000/svg">
<path opacity="0.3" d="M166.556 0H-14.9326C-37.9533 0 -56.6152 18.6619 -56.6152 41.6826V584.072C-56.6152 601.743 -45.4724 617.494 -28.8092 623.377L84.7035 663.453C89.1608 665.026 93.8532 665.83 98.5801 665.83H292.74C297.042 665.83 301.318 665.164 305.416 663.856L525.604 593.567C547.083 586.71 559.216 564.017 552.99 542.347L429.98 114.235C424.847 96.3703 408.506 84.0632 389.918 84.0632H312.426C303.84 84.0632 295.463 81.4117 288.441 76.4711L190.541 7.5921C183.519 2.6515 175.142 0 166.556 0Z" fill="#2A8086"/>
</svg>
