<svg width="34" height="11" viewBox="0 0 34 11" fill="none" xmlns="http://www.w3.org/2000/svg">
<path d="M14.3807 10.5856H11.6924L13.3739 0.188477H16.0621L14.3807 10.5856Z" fill="#00579F"/>
<path d="M24.1268 0.442645C23.5966 0.232274 22.7555 0 21.7156 0C19.0608 0 17.1912 1.4157 17.1798 3.43972C17.1577 4.93304 18.5183 5.76247 19.5359 6.26039C20.576 6.76918 20.9295 7.10128 20.9295 7.5548C20.9189 8.25133 20.0891 8.5724 19.3151 8.5724C18.2418 8.5724 17.6667 8.40687 16.7927 8.01935L16.4387 7.85323L16.0625 10.1871C16.693 10.4744 17.8547 10.7293 19.0608 10.7405C21.8816 10.7405 23.718 9.3467 23.7398 7.18978C23.7505 6.00621 23.0321 5.09931 21.4832 4.35823C20.5429 3.88251 19.9671 3.56174 19.9671 3.07499C19.9781 2.63249 20.4541 2.17926 21.5155 2.17926C22.3895 2.15707 23.0316 2.36714 23.5181 2.57736L23.7612 2.68777L24.1268 0.442645Z" fill="#00579F"/>
<path fill-rule="evenodd" clip-rule="evenodd" d="M28.9384 0.188477H31.0178L33.1866 10.5854H30.6975C30.6975 10.5854 30.4539 9.39081 30.3767 9.02578H26.9251C26.8253 9.30216 26.3609 10.5854 26.3609 10.5854H23.54L27.5332 1.05113C27.8099 0.376354 28.2971 0.188477 28.9384 0.188477ZM28.7724 3.99328C28.7724 3.99328 27.9205 6.305 27.6991 6.9023H29.9336C29.823 6.38248 29.314 3.89376 29.314 3.89376L29.1261 2.99788C29.047 3.22857 28.9325 3.54573 28.8554 3.75966C28.8031 3.90468 28.7679 4.00225 28.7724 3.99328Z" fill="#00579F"/>
<path d="M9.44689 0.188477L6.8141 7.27829L6.5264 5.84039C6.03965 4.18125 4.51311 2.37862 2.80957 1.4823L5.22111 10.5745H8.06397L12.2896 0.188477H9.44689V0.188477Z" fill="#00579F"/>
<path d="M4.36955 0.188477H0.0442497L0 0.398553C3.37401 1.26135 5.60854 3.34109 6.52662 5.84083L5.58635 1.06245C5.43155 0.398406 4.95582 0.210381 4.36955 0.188477Z" fill="#FAA61A"/>
</svg>
